<svg xmlns="http://www.w3.org/2000/svg" xmlns:xlink="http://www.w3.org/1999/xlink" width="500" zoomAndPan="magnify" viewBox="0 0 375 374.999991" height="500" preserveAspectRatio="xMidYMid meet" version="1.0"><defs><clipPath id="a4c05692d8"><path d="M 22 122.777344 L 353 122.777344 L 353 252.527344 L 22 252.527344 Z M 22 122.777344 " clip-rule="nonzero"/></clipPath><clipPath id="d1ebfbd5f7"><path d="M 57 122.777344 L 164 122.777344 L 164 155 L 57 155 Z M 57 122.777344 " clip-rule="nonzero"/></clipPath></defs><g clip-path="url(#a4c05692d8)"><path fill="#000000" d="M 290.566406 185.730469 C 290.699219 184.796875 291.632812 184 292.566406 184 L 300.769531 184 C 301.703125 184 302.371094 184.796875 302.238281 185.730469 C 302.105469 186.664062 301.171875 187.464844 300.238281 187.464844 L 292.035156 187.464844 C 291.101562 187.464844 290.433594 186.664062 290.566406 185.730469 M 300.101562 226.679688 C 295.769531 226.679688 291.699219 230.214844 291.035156 234.550781 C 290.367188 238.882812 293.367188 242.417969 297.769531 242.417969 C 302.105469 242.417969 306.171875 238.882812 306.839844 234.550781 C 307.4375 230.214844 304.4375 226.679688 300.101562 226.679688 Z M 146.449219 226.679688 C 142.113281 226.679688 138.046875 230.214844 137.378906 234.550781 C 136.714844 238.882812 139.714844 242.417969 144.117188 242.417969 C 148.449219 242.417969 152.519531 238.882812 153.183594 234.550781 C 153.851562 230.214844 150.851562 226.679688 146.449219 226.679688 Z M 286.832031 165.058594 L 287.898438 157.921875 L 288.367188 154.722656 C 288.632812 152.789062 290.5 151.1875 292.433594 151.1875 L 322.378906 151.1875 C 323.511719 151.1875 324.378906 151.652344 324.980469 152.519531 L 340.25 176.929688 C 340.652344 177.597656 340.652344 178.394531 340.117188 179.195312 C 339.652344 179.929688 338.851562 180.398438 338.050781 180.398438 L 288.03125 180.398438 C 286.097656 180.398438 284.765625 178.796875 285.03125 176.863281 Z M 37.210938 231.015625 L 128.511719 231.015625 C 128.109375 232.148438 127.777344 233.347656 127.644531 234.550781 C 126.175781 244.285156 132.910156 252.222656 142.648438 252.222656 C 152.386719 252.222656 161.523438 244.285156 162.988281 234.550781 C 164.457031 224.8125 157.71875 216.875 147.984375 216.875 C 144.117188 216.875 140.382812 218.078125 137.179688 220.210938 C 140.78125 217.476562 145.183594 215.808594 149.71875 215.808594 C 158.789062 215.808594 165.257812 222.410156 165.257812 231.015625 L 282.164062 231.015625 C 281.765625 232.148438 281.429688 233.347656 281.296875 234.550781 C 279.828125 244.285156 286.566406 252.222656 296.300781 252.222656 C 306.039062 252.222656 315.175781 244.285156 316.644531 234.550781 C 318.109375 224.8125 311.375 216.875 301.636719 216.875 C 297.300781 216.875 293.167969 218.410156 289.699219 220.945312 C 293.433594 217.742188 298.234375 215.742188 303.238281 215.742188 C 312.308594 215.742188 318.84375 222.34375 318.777344 230.949219 L 342.984375 230.949219 C 344.71875 230.949219 346.320312 229.546875 346.585938 227.8125 L 347.585938 221.210938 L 348.054688 221.210938 C 348.855469 221.210938 349.652344 220.542969 349.789062 219.742188 C 349.921875 218.945312 349.320312 218.277344 348.519531 218.277344 L 340.917969 218.277344 L 341.382812 215.34375 L 347.054688 215.34375 C 347.855469 215.34375 348.652344 214.675781 348.789062 213.875 L 352.589844 188.53125 C 352.722656 187.800781 352.589844 187.199219 352.253906 186.597656 L 325.378906 143.585938 C 324.914062 142.785156 324.113281 142.382812 323.113281 142.382812 L 290.433594 142.382812 L 291.96875 132.179688 C 292.367188 129.511719 291.234375 127.046875 288.964844 125.644531 L 284.296875 122.777344 L 278.761719 159.921875 L 272.09375 204.136719 L 265.425781 204.136719 C 269.492188 176.996094 273.628906 149.917969 277.695312 122.777344 L 273.695312 122.777344 L 263.15625 192.535156 L 260.691406 192.535156 L 269.960938 130.378906 C 270.226562 128.378906 269.757812 126.578125 268.425781 125.109375 C 267.09375 123.578125 265.425781 122.84375 263.425781 122.84375 L 180.59375 122.84375 C 177.726562 122.84375 175.394531 124.910156 174.992188 127.710938 L 174.925781 127.910156 C 174.660156 129.578125 175.125 131.179688 176.261719 132.445312 C 177.394531 133.78125 178.859375 134.449219 180.59375 134.449219 L 221.140625 134.449219 C 222.34375 134.449219 223.34375 134.914062 224.078125 135.78125 C 224.878906 136.648438 225.144531 137.714844 224.945312 138.914062 L 224.742188 139.984375 C 224.476562 141.917969 222.808594 143.316406 220.875 143.316406 L 152.183594 143.316406 C 149.382812 143.316406 146.984375 145.316406 146.582031 148.117188 L 146.515625 148.320312 C 146.25 150.054688 146.714844 151.585938 147.785156 152.921875 C 148.917969 154.253906 150.382812 154.921875 152.117188 154.921875 L 246.285156 154.921875 L 238.882812 204.40625 C 193.199219 204.40625 113.4375 204.40625 65.820312 204.40625 C 59.417969 204.40625 59.484375 214.074219 65.820312 214.074219 L 109.304688 214.074219 C 114.90625 214.074219 114.839844 222.746094 109.238281 222.746094 L 39.414062 222.746094 C 34.144531 222.746094 32.675781 231.015625 37.210938 231.015625 Z M 26.339844 143.316406 L 81.09375 143.316406 C 82.292969 143.316406 83.292969 143.984375 84.027344 145.316406 C 84.761719 146.585938 85.09375 148.1875 84.960938 149.851562 L 84.960938 150.054688 C 84.695312 152.855469 83.027344 154.921875 81.09375 154.921875 L 26.273438 154.921875 C 25.074219 154.921875 24.074219 154.253906 23.339844 152.921875 C 22.605469 151.652344 22.273438 150.054688 22.40625 148.386719 L 22.40625 148.1875 C 22.738281 145.316406 24.40625 143.316406 26.339844 143.316406 Z M 26.339844 143.316406 " fill-opacity="1" fill-rule="evenodd"/></g><path fill="#a70000" d="M 299.371094 231.480469 C 297.636719 231.480469 296.101562 232.882812 295.835938 234.550781 C 295.570312 236.285156 296.769531 237.617188 298.4375 237.617188 C 300.171875 237.617188 301.703125 236.214844 301.972656 234.550781 C 302.238281 232.882812 301.105469 231.480469 299.371094 231.480469 " fill-opacity="1" fill-rule="evenodd"/><path fill="#a70000" d="M 145.714844 231.480469 C 143.980469 231.480469 142.449219 232.882812 142.179688 234.550781 C 141.914062 236.285156 143.113281 237.617188 144.78125 237.617188 C 146.515625 237.617188 148.050781 236.214844 148.316406 234.550781 C 148.652344 232.882812 147.449219 231.480469 145.714844 231.480469 " fill-opacity="1" fill-rule="evenodd"/><g clip-path="url(#d1ebfbd5f7)"><path fill="#a70000" d="M 126.441406 143.316406 L 100.566406 143.316406 C 97.699219 143.316406 95.363281 145.382812 94.964844 148.1875 L 94.898438 148.386719 C 94.632812 150.054688 95.097656 151.652344 96.230469 152.921875 C 97.367188 154.253906 98.832031 154.921875 100.566406 154.921875 L 126.441406 154.921875 C 129.242188 154.921875 131.644531 152.921875 132.042969 150.121094 L 132.113281 149.917969 C 132.378906 148.1875 131.910156 146.652344 130.84375 145.316406 C 129.777344 143.984375 128.109375 143.316406 126.441406 143.316406 M 163.589844 129.578125 L 163.589844 129.378906 C 163.789062 127.710938 163.457031 126.109375 162.589844 124.84375 C 161.722656 123.511719 160.589844 122.84375 159.1875 122.84375 L 61.621094 122.84375 C 59.417969 122.84375 57.550781 124.910156 57.21875 127.710938 L 57.21875 127.910156 C 57.019531 129.578125 57.351562 131.179688 58.21875 132.445312 C 59.085938 133.78125 60.21875 134.449219 61.621094 134.449219 L 159.1875 134.449219 C 161.386719 134.382812 163.253906 132.378906 163.589844 129.578125 Z M 163.589844 129.578125 " fill-opacity="1" fill-rule="evenodd"/></g></svg>