<svg xmlns="http://www.w3.org/2000/svg" xmlns:xlink="http://www.w3.org/1999/xlink" width="500" zoomAndPan="magnify" viewBox="0 0 375 374.999991" height="500" preserveAspectRatio="xMidYMid meet" version="1.0"><defs><g/><clipPath id="d04d6d6ce9"><path d="M 37.546875 91.746094 L 356.683594 91.746094 L 356.683594 252.90625 L 37.546875 252.90625 Z M 37.546875 91.746094 " clip-rule="nonzero"/></clipPath></defs><path fill="#8c0000" d="M 151.617188 169.316406 L 138.320312 169.316406 L 138.320312 156.019531 L 151.617188 156.019531 L 151.617188 169.316406 " fill-opacity="1" fill-rule="nonzero"/><path fill="#8c0000" d="M 171.117188 169.316406 L 157.820312 169.316406 L 157.820312 156.019531 L 171.117188 156.019531 L 171.117188 169.316406 " fill-opacity="1" fill-rule="nonzero"/><path fill="#8c0000" d="M 151.617188 175.523438 L 151.617188 188.820312 L 138.320312 188.820312 L 138.320312 175.523438 L 151.617188 175.523438 " fill-opacity="1" fill-rule="nonzero"/><path fill="#8c0000" d="M 171.117188 175.523438 L 171.117188 188.820312 L 157.820312 188.820312 L 157.820312 175.523438 L 171.117188 175.523438 " fill-opacity="1" fill-rule="nonzero"/><g clip-path="url(#d04d6d6ce9)"><path fill="#8c0000" d="M 84.976562 147.371094 L 84.976562 112.886719 L 101.761719 112.886719 L 101.761719 133.984375 L 154.71875 91.746094 L 357.046875 253.097656 L 313.703125 253.097656 L 154.71875 110.523438 L 71.109375 185.5 L 37.175781 185.5 L 84.976562 147.371094 " fill-opacity="1" fill-rule="nonzero"/></g><g fill="#322f30" fill-opacity="1"><g transform="translate(53.704695, 257.419063)"><g><path d="M 62.25 -35.6875 L 62.25 -21.859375 C 60.601562 -14.285156 57 -8.554688 51.4375 -4.671875 C 45.875 -0.785156 39.671875 1.15625 32.828125 1.15625 C 24.222656 1.15625 16.894531 -2.0625 10.84375 -8.5 C 4.800781 -14.9375 1.78125 -22.710938 1.78125 -31.828125 C 1.78125 -41.085938 4.738281 -48.910156 10.65625 -55.296875 C 16.582031 -61.679688 23.972656 -64.875 32.828125 -64.875 C 43.171875 -64.875 51.359375 -61.242188 57.390625 -53.984375 L 47.890625 -43.5625 C 44.484375 -49.019531 39.742188 -51.75 33.671875 -51.75 C 29.191406 -51.75 25.367188 -49.800781 22.203125 -45.90625 C 19.035156 -42.019531 17.453125 -37.328125 17.453125 -31.828125 C 17.453125 -26.410156 19.035156 -21.785156 22.203125 -17.953125 C 25.367188 -14.117188 29.191406 -12.203125 33.671875 -12.203125 C 37.378906 -12.203125 40.609375 -13.320312 43.359375 -15.5625 C 46.117188 -17.800781 47.5 -20.773438 47.5 -24.484375 L 32.828125 -24.484375 L 32.828125 -35.6875 Z M 62.25 -35.6875 "/></g></g></g><g fill="#322f30" fill-opacity="1"><g transform="translate(111.158733, 257.419063)"><g><path d="M 17.53125 -39.625 L 17.53125 -20.78125 C 17.53125 -16.863281 18.117188 -14.082031 19.296875 -12.4375 C 20.484375 -10.789062 22.492188 -9.96875 25.328125 -9.96875 C 28.160156 -9.96875 30.171875 -10.789062 31.359375 -12.4375 C 32.546875 -14.082031 33.140625 -16.863281 33.140625 -20.78125 L 33.140625 -39.625 L 46.796875 -39.625 L 46.796875 -17.453125 C 46.796875 -10.859375 45.082031 -6.109375 41.65625 -3.203125 C 38.238281 -0.296875 32.796875 1.15625 25.328125 1.15625 C 17.867188 1.15625 12.425781 -0.296875 9 -3.203125 C 5.570312 -6.109375 3.859375 -10.859375 3.859375 -17.453125 L 3.859375 -39.625 Z M 17.53125 -39.625 "/></g></g></g><g fill="#322f30" fill-opacity="1"><g transform="translate(155.252966, 257.419063)"><g><path d="M 44.71875 -17.921875 L 15.984375 -17.921875 C 15.984375 -15.140625 16.882812 -13.078125 18.6875 -11.734375 C 20.488281 -10.398438 22.445312 -9.734375 24.5625 -9.734375 C 26.769531 -9.734375 28.519531 -10.03125 29.8125 -10.625 C 31.101562 -11.21875 32.570312 -12.390625 34.21875 -14.140625 L 44.09375 -9.1875 C 39.976562 -2.289062 33.132812 1.15625 23.5625 1.15625 C 17.582031 1.15625 12.457031 -0.890625 8.1875 -4.984375 C 3.914062 -9.078125 1.78125 -14.003906 1.78125 -19.765625 C 1.78125 -25.535156 3.914062 -30.476562 8.1875 -34.59375 C 12.457031 -38.71875 17.582031 -40.78125 23.5625 -40.78125 C 29.84375 -40.78125 34.953125 -38.960938 38.890625 -35.328125 C 42.828125 -31.703125 44.796875 -26.515625 44.796875 -19.765625 C 44.796875 -18.835938 44.769531 -18.222656 44.71875 -17.921875 Z M 16.375 -25.484375 L 31.4375 -25.484375 C 31.125 -27.546875 30.3125 -29.128906 29 -30.234375 C 27.6875 -31.335938 26 -31.890625 23.9375 -31.890625 C 21.675781 -31.890625 19.875 -31.296875 18.53125 -30.109375 C 17.195312 -28.929688 16.476562 -27.390625 16.375 -25.484375 Z M 16.375 -25.484375 "/></g></g></g><g fill="#322f30" fill-opacity="1"><g transform="translate(195.254319, 257.419063)"><g><path d="M 21.859375 -40.78125 C 24.117188 -40.78125 26.351562 -40.519531 28.5625 -40 C 30.78125 -39.488281 32.429688 -38.976562 33.515625 -38.46875 L 35.140625 -37.6875 L 30.65625 -28.734375 C 27.570312 -30.378906 24.640625 -31.203125 21.859375 -31.203125 C 20.316406 -31.203125 19.222656 -31.035156 18.578125 -30.703125 C 17.929688 -30.367188 17.609375 -29.738281 17.609375 -28.8125 C 17.609375 -28.601562 17.632812 -28.394531 17.6875 -28.1875 C 17.738281 -27.976562 17.84375 -27.785156 18 -27.609375 C 18.15625 -27.429688 18.296875 -27.273438 18.421875 -27.140625 C 18.546875 -27.015625 18.765625 -26.875 19.078125 -26.71875 C 19.390625 -26.5625 19.632812 -26.445312 19.8125 -26.375 C 19.988281 -26.300781 20.28125 -26.1875 20.6875 -26.03125 C 21.101562 -25.875 21.414062 -25.753906 21.625 -25.671875 C 21.832031 -25.597656 22.179688 -25.484375 22.671875 -25.328125 C 23.160156 -25.171875 23.53125 -25.070312 23.78125 -25.03125 C 25.382812 -24.5625 26.773438 -24.039062 27.953125 -23.46875 C 29.140625 -22.90625 30.390625 -22.132812 31.703125 -21.15625 C 33.015625 -20.175781 34.03125 -18.941406 34.75 -17.453125 C 35.476562 -15.960938 35.84375 -14.265625 35.84375 -12.359375 C 35.84375 -3.347656 29.582031 1.15625 17.0625 1.15625 C 14.238281 1.15625 11.550781 0.71875 9 -0.15625 C 6.445312 -1.03125 4.601562 -1.90625 3.46875 -2.78125 L 1.78125 -4.171875 L 7.34375 -13.515625 C 7.75 -13.148438 8.285156 -12.722656 8.953125 -12.234375 C 9.628906 -11.753906 10.84375 -11.085938 12.59375 -10.234375 C 14.34375 -9.378906 15.859375 -8.953125 17.140625 -8.953125 C 19.972656 -8.953125 21.390625 -9.90625 21.390625 -11.8125 C 21.390625 -12.6875 21.03125 -13.367188 20.3125 -13.859375 C 19.59375 -14.347656 18.367188 -14.898438 16.640625 -15.515625 C 14.921875 -16.140625 13.570312 -16.707031 12.59375 -17.21875 C 10.113281 -18.507812 8.15625 -19.960938 6.71875 -21.578125 C 5.28125 -23.203125 4.5625 -25.351562 4.5625 -28.03125 C 4.5625 -32.050781 6.117188 -35.179688 9.234375 -37.421875 C 12.347656 -39.660156 16.554688 -40.78125 21.859375 -40.78125 Z M 21.859375 -40.78125 "/></g></g></g><g fill="#322f30" fill-opacity="1"><g transform="translate(226.683767, 257.419063)"><g><path d="M 6.953125 -39.625 L 6.953125 -54.375 L 20.625 -54.375 L 20.625 -39.625 L 28.96875 -39.625 L 28.96875 -29.1875 L 20.625 -29.1875 L 20.625 -16.609375 C 20.625 -12.953125 21.648438 -11.125 23.703125 -11.125 C 24.222656 -11.125 24.765625 -11.222656 25.328125 -11.421875 C 25.898438 -11.628906 26.335938 -11.835938 26.640625 -12.046875 L 27.109375 -12.359375 L 30.5 -1.3125 C 27.570312 0.332031 24.226562 1.15625 20.46875 1.15625 C 17.894531 1.15625 15.679688 0.707031 13.828125 -0.1875 C 11.972656 -1.09375 10.566406 -2.300781 9.609375 -3.8125 C 8.660156 -5.332031 7.976562 -6.929688 7.5625 -8.609375 C 7.15625 -10.285156 6.953125 -12.078125 6.953125 -13.984375 L 6.953125 -29.1875 L 1.234375 -29.1875 L 1.234375 -39.625 Z M 6.953125 -39.625 "/></g></g></g><g fill="#322f30" fill-opacity="1"><g transform="translate(37.007781, 278.855735)"><g><path d="M 7.921875 0.25 C 6.929688 0.25 6.019531 0.078125 5.1875 -0.265625 C 4.351562 -0.609375 3.628906 -1.09375 3.015625 -1.71875 C 2.410156 -2.34375 1.941406 -3.082031 1.609375 -3.9375 C 1.273438 -4.789062 1.109375 -5.722656 1.109375 -6.734375 C 1.109375 -7.742188 1.273438 -8.675781 1.609375 -9.53125 C 1.941406 -10.382812 2.410156 -11.117188 3.015625 -11.734375 C 3.628906 -12.359375 4.351562 -12.84375 5.1875 -13.1875 C 6.019531 -13.539062 6.929688 -13.71875 7.921875 -13.71875 C 8.984375 -13.71875 9.957031 -13.519531 10.84375 -13.125 C 11.738281 -12.738281 12.503906 -12.179688 13.140625 -11.453125 C 13.773438 -10.734375 14.242188 -9.878906 14.546875 -8.890625 L 12.734375 -8.890625 C 12.390625 -9.859375 11.789062 -10.617188 10.9375 -11.171875 C 10.082031 -11.734375 9.097656 -12.015625 7.984375 -12.015625 C 6.984375 -12.015625 6.097656 -11.789062 5.328125 -11.34375 C 4.554688 -10.894531 3.945312 -10.273438 3.5 -9.484375 C 3.0625 -8.691406 2.84375 -7.773438 2.84375 -6.734375 C 2.84375 -5.691406 3.0625 -4.769531 3.5 -3.96875 C 3.945312 -3.175781 4.554688 -2.554688 5.328125 -2.109375 C 6.097656 -1.660156 6.984375 -1.4375 7.984375 -1.4375 C 9.117188 -1.4375 10.128906 -1.734375 11.015625 -2.328125 C 11.898438 -2.921875 12.519531 -3.722656 12.875 -4.734375 L 14.65625 -4.734375 C 14.382812 -3.734375 13.925781 -2.859375 13.28125 -2.109375 C 12.632812 -1.367188 11.851562 -0.789062 10.9375 -0.375 C 10.019531 0.0390625 9.015625 0.25 7.921875 0.25 Z M 7.921875 0.25 "/></g></g></g><g fill="#322f30" fill-opacity="1"><g transform="translate(63.173096, 278.855735)"><g><path d="M 8.078125 0.25 C 6.722656 0.25 5.519531 -0.046875 4.46875 -0.640625 C 3.414062 -1.234375 2.59375 -2.054688 2 -3.109375 C 1.40625 -4.160156 1.109375 -5.367188 1.109375 -6.734375 C 1.109375 -8.109375 1.40625 -9.316406 2 -10.359375 C 2.59375 -11.398438 3.414062 -12.21875 4.46875 -12.8125 C 5.519531 -13.414062 6.722656 -13.71875 8.078125 -13.71875 C 9.453125 -13.71875 10.660156 -13.414062 11.703125 -12.8125 C 12.742188 -12.21875 13.5625 -11.398438 14.15625 -10.359375 C 14.757812 -9.316406 15.0625 -8.109375 15.0625 -6.734375 C 15.0625 -5.367188 14.757812 -4.160156 14.15625 -3.109375 C 13.5625 -2.054688 12.742188 -1.234375 11.703125 -0.640625 C 10.660156 -0.046875 9.453125 0.25 8.078125 0.25 Z M 2.84375 -6.734375 C 2.84375 -5.691406 3.0625 -4.769531 3.5 -3.96875 C 3.945312 -3.175781 4.566406 -2.554688 5.359375 -2.109375 C 6.148438 -1.660156 7.054688 -1.4375 8.078125 -1.4375 C 9.117188 -1.4375 10.03125 -1.660156 10.8125 -2.109375 C 11.59375 -2.554688 12.203125 -3.175781 12.640625 -3.96875 C 13.085938 -4.769531 13.3125 -5.691406 13.3125 -6.734375 C 13.3125 -7.785156 13.085938 -8.703125 12.640625 -9.484375 C 12.203125 -10.273438 11.59375 -10.894531 10.8125 -11.34375 C 10.03125 -11.789062 9.117188 -12.015625 8.078125 -12.015625 C 7.054688 -12.015625 6.148438 -11.789062 5.359375 -11.34375 C 4.566406 -10.894531 3.945312 -10.273438 3.5 -9.484375 C 3.0625 -8.703125 2.84375 -7.785156 2.84375 -6.734375 Z M 2.84375 -6.734375 "/></g></g></g><g fill="#322f30" fill-opacity="1"><g transform="translate(89.800166, 278.855735)"><g><path d="M 1.96875 0 L 1.96875 -13.46875 L 3.5625 -13.46875 L 11 -2.921875 L 11 -13.46875 L 12.65625 -13.46875 L 12.65625 0 L 11.078125 0 L 3.640625 -10.546875 L 3.640625 0 Z M 1.96875 0 "/></g></g></g><g fill="#322f30" fill-opacity="1"><g transform="translate(114.888095, 278.855735)"><g><path d="M 6.4375 0.25 C 5.363281 0.25 4.429688 0.0664062 3.640625 -0.296875 C 2.859375 -0.660156 2.25 -1.171875 1.8125 -1.828125 C 1.382812 -2.492188 1.164062 -3.265625 1.15625 -4.140625 L 2.84375 -4.140625 C 2.875 -3.273438 3.21875 -2.59375 3.875 -2.09375 C 4.53125 -1.601562 5.382812 -1.359375 6.4375 -1.359375 C 7.382812 -1.359375 8.140625 -1.546875 8.703125 -1.921875 C 9.265625 -2.296875 9.546875 -2.816406 9.546875 -3.484375 C 9.546875 -4.109375 9.273438 -4.609375 8.734375 -4.984375 C 8.191406 -5.367188 7.3125 -5.703125 6.09375 -5.984375 C 4.4375 -6.378906 3.222656 -6.882812 2.453125 -7.5 C 1.691406 -8.125 1.3125 -8.957031 1.3125 -10 C 1.3125 -11.144531 1.742188 -12.050781 2.609375 -12.71875 C 3.472656 -13.382812 4.640625 -13.71875 6.109375 -13.71875 C 7.628906 -13.71875 8.828125 -13.335938 9.703125 -12.578125 C 10.578125 -11.816406 11.023438 -10.785156 11.046875 -9.484375 L 9.359375 -9.484375 C 9.347656 -10.285156 9.050781 -10.921875 8.46875 -11.390625 C 7.882812 -11.859375 7.097656 -12.09375 6.109375 -12.09375 C 5.148438 -12.09375 4.394531 -11.90625 3.84375 -11.53125 C 3.300781 -11.15625 3.03125 -10.644531 3.03125 -10 C 3.03125 -9.445312 3.285156 -8.984375 3.796875 -8.609375 C 4.304688 -8.234375 5.210938 -7.882812 6.515625 -7.5625 C 8.234375 -7.132812 9.457031 -6.601562 10.1875 -5.96875 C 10.925781 -5.332031 11.296875 -4.523438 11.296875 -3.546875 C 11.296875 -2.367188 10.851562 -1.441406 9.96875 -0.765625 C 9.09375 -0.0859375 7.914062 0.25 6.4375 0.25 Z M 6.4375 0.25 "/></g></g></g><g fill="#322f30" fill-opacity="1"><g transform="translate(137.801975, 278.855735)"><g><path d="M 5.21875 0 L 5.21875 -11.84375 L 0.65625 -11.84375 L 0.65625 -13.46875 L 11.4375 -13.46875 L 11.4375 -11.84375 L 6.90625 -11.84375 L 6.90625 0 Z M 5.21875 0 "/></g></g></g><g fill="#322f30" fill-opacity="1"><g transform="translate(160.388798, 278.855735)"><g><path d="M 1.96875 0 L 1.96875 -13.46875 L 7.09375 -13.46875 C 8.03125 -13.46875 8.84375 -13.289062 9.53125 -12.9375 C 10.226562 -12.582031 10.769531 -12.082031 11.15625 -11.4375 C 11.539062 -10.800781 11.734375 -10.035156 11.734375 -9.140625 C 11.734375 -8.046875 11.453125 -7.140625 10.890625 -6.421875 C 10.328125 -5.710938 9.550781 -5.238281 8.5625 -5 L 11.9375 0 L 9.90625 0 L 6.609375 -4.828125 L 3.65625 -4.828125 L 3.65625 0 Z M 3.65625 -6.4375 L 6.90625 -6.4375 C 7.894531 -6.4375 8.65625 -6.671875 9.1875 -7.140625 C 9.726562 -7.609375 10 -8.273438 10 -9.140625 C 10 -9.992188 9.726562 -10.65625 9.1875 -11.125 C 8.65625 -11.601562 7.894531 -11.84375 6.90625 -11.84375 L 3.65625 -11.84375 Z M 3.65625 -6.4375 "/></g></g></g><g fill="#322f30" fill-opacity="1"><g transform="translate(183.956815, 278.855735)"><g><path d="M 7 0.234375 C 5.375 0.234375 4.101562 -0.269531 3.1875 -1.28125 C 2.269531 -2.300781 1.8125 -3.703125 1.8125 -5.484375 L 1.8125 -13.46875 L 3.484375 -13.46875 L 3.484375 -5.59375 C 3.484375 -4.226562 3.785156 -3.191406 4.390625 -2.484375 C 4.992188 -1.773438 5.863281 -1.421875 7 -1.421875 C 9.34375 -1.421875 10.515625 -2.8125 10.515625 -5.59375 L 10.515625 -13.46875 L 12.21875 -13.46875 L 12.21875 -5.484375 C 12.21875 -3.703125 11.753906 -2.300781 10.828125 -1.28125 C 9.898438 -0.269531 8.625 0.234375 7 0.234375 Z M 7 0.234375 "/></g></g></g><g fill="#322f30" fill-opacity="1"><g transform="translate(208.448317, 278.855735)"><g><path d="M 7.921875 0.25 C 6.929688 0.25 6.019531 0.078125 5.1875 -0.265625 C 4.351562 -0.609375 3.628906 -1.09375 3.015625 -1.71875 C 2.410156 -2.34375 1.941406 -3.082031 1.609375 -3.9375 C 1.273438 -4.789062 1.109375 -5.722656 1.109375 -6.734375 C 1.109375 -7.742188 1.273438 -8.675781 1.609375 -9.53125 C 1.941406 -10.382812 2.410156 -11.117188 3.015625 -11.734375 C 3.628906 -12.359375 4.351562 -12.84375 5.1875 -13.1875 C 6.019531 -13.539062 6.929688 -13.71875 7.921875 -13.71875 C 8.984375 -13.71875 9.957031 -13.519531 10.84375 -13.125 C 11.738281 -12.738281 12.503906 -12.179688 13.140625 -11.453125 C 13.773438 -10.734375 14.242188 -9.878906 14.546875 -8.890625 L 12.734375 -8.890625 C 12.390625 -9.859375 11.789062 -10.617188 10.9375 -11.171875 C 10.082031 -11.734375 9.097656 -12.015625 7.984375 -12.015625 C 6.984375 -12.015625 6.097656 -11.789062 5.328125 -11.34375 C 4.554688 -10.894531 3.945312 -10.273438 3.5 -9.484375 C 3.0625 -8.691406 2.84375 -7.773438 2.84375 -6.734375 C 2.84375 -5.691406 3.0625 -4.769531 3.5 -3.96875 C 3.945312 -3.175781 4.554688 -2.554688 5.328125 -2.109375 C 6.097656 -1.660156 6.984375 -1.4375 7.984375 -1.4375 C 9.117188 -1.4375 10.128906 -1.734375 11.015625 -2.328125 C 11.898438 -2.921875 12.519531 -3.722656 12.875 -4.734375 L 14.65625 -4.734375 C 14.382812 -3.734375 13.925781 -2.859375 13.28125 -2.109375 C 12.632812 -1.367188 11.851562 -0.789062 10.9375 -0.375 C 10.019531 0.0390625 9.015625 0.25 7.921875 0.25 Z M 7.921875 0.25 "/></g></g></g><g fill="#322f30" fill-opacity="1"><g transform="translate(234.613632, 278.855735)"><g><path d="M 5.21875 0 L 5.21875 -11.84375 L 0.65625 -11.84375 L 0.65625 -13.46875 L 11.4375 -13.46875 L 11.4375 -11.84375 L 6.90625 -11.84375 L 6.90625 0 Z M 5.21875 0 "/></g></g></g><g fill="#322f30" fill-opacity="1"><g transform="translate(257.200455, 278.855735)"><g><path d="M 1.96875 0 L 1.96875 -13.46875 L 3.65625 -13.46875 L 3.65625 0 Z M 1.96875 0 "/></g></g></g><g fill="#322f30" fill-opacity="1"><g transform="translate(273.284406, 278.855735)"><g><path d="M 8.078125 0.25 C 6.722656 0.25 5.519531 -0.046875 4.46875 -0.640625 C 3.414062 -1.234375 2.59375 -2.054688 2 -3.109375 C 1.40625 -4.160156 1.109375 -5.367188 1.109375 -6.734375 C 1.109375 -8.109375 1.40625 -9.316406 2 -10.359375 C 2.59375 -11.398438 3.414062 -12.21875 4.46875 -12.8125 C 5.519531 -13.414062 6.722656 -13.71875 8.078125 -13.71875 C 9.453125 -13.71875 10.660156 -13.414062 11.703125 -12.8125 C 12.742188 -12.21875 13.5625 -11.398438 14.15625 -10.359375 C 14.757812 -9.316406 15.0625 -8.109375 15.0625 -6.734375 C 15.0625 -5.367188 14.757812 -4.160156 14.15625 -3.109375 C 13.5625 -2.054688 12.742188 -1.234375 11.703125 -0.640625 C 10.660156 -0.046875 9.453125 0.25 8.078125 0.25 Z M 2.84375 -6.734375 C 2.84375 -5.691406 3.0625 -4.769531 3.5 -3.96875 C 3.945312 -3.175781 4.566406 -2.554688 5.359375 -2.109375 C 6.148438 -1.660156 7.054688 -1.4375 8.078125 -1.4375 C 9.117188 -1.4375 10.03125 -1.660156 10.8125 -2.109375 C 11.59375 -2.554688 12.203125 -3.175781 12.640625 -3.96875 C 13.085938 -4.769531 13.3125 -5.691406 13.3125 -6.734375 C 13.3125 -7.785156 13.085938 -8.703125 12.640625 -9.484375 C 12.203125 -10.273438 11.59375 -10.894531 10.8125 -11.34375 C 10.03125 -11.789062 9.117188 -12.015625 8.078125 -12.015625 C 7.054688 -12.015625 6.148438 -11.789062 5.359375 -11.34375 C 4.566406 -10.894531 3.945312 -10.273438 3.5 -9.484375 C 3.0625 -8.703125 2.84375 -7.785156 2.84375 -6.734375 Z M 2.84375 -6.734375 "/></g></g></g><g fill="#322f30" fill-opacity="1"><g transform="translate(299.911476, 278.855735)"><g><path d="M 1.96875 0 L 1.96875 -13.46875 L 3.5625 -13.46875 L 11 -2.921875 L 11 -13.46875 L 12.65625 -13.46875 L 12.65625 0 L 11.078125 0 L 3.640625 -10.546875 L 3.640625 0 Z M 1.96875 0 "/></g></g></g></svg>